<svg width="32" height="32" viewBox="0 0 32 32" fill="none" xmlns="http://www.w3.org/2000/svg">
    <!-- Apple Watch case -->
    <rect x="6" y="4" width="20" height="24" rx="6" ry="6" fill="#2C2C2E" stroke="#3C3C3E" stroke-width="0.5" />

    <!-- Digital Crown -->
    <rect x="26" y="10" width="2" height="4" rx="1" fill="#8E8E93" />

    <!-- Side button -->
    <rect x="26" y="16" width="1.5" height="3" rx="0.75" fill="#8E8E93" />

    <!-- Watch band top -->
    <rect x="11" y="0" width="10" height="4" rx="2" fill="#1C1C1E" />

    <!-- Watch band bottom -->
    <rect x="11" y="28" width="10" height="4" rx="2" fill="#1C1C1E" />

    <!-- Screen -->
    <rect x="8" y="6" width="16" height="20" rx="4" fill="#000000" />

    <!-- QR code pattern on screen -->
    <g fill="#FFFFFF">
        <!-- Corner squares -->
        <rect x="10" y="8" width="2" height="2" />
        <rect x="10" y="10" width="2" height="2" />
        <rect x="12" y="8" width="2" height="2" />
        <rect x="20" y="8" width="2" height="2" />
        <rect x="20" y="10" width="2" height="2" />
        <rect x="22" y="8" width="2" height="2" />
        <rect x="10" y="22" width="2" height="2" />
        <rect x="12" y="22" width="2" height="2" />
        <rect x="10" y="24" width="2" height="2" />

        <!-- Center pattern -->
        <rect x="15" y="15" width="2" height="2" />
        <rect x="13" y="17" width="2" height="2" />
        <rect x="17" y="13" width="2" height="2" />
        <rect x="19" y="15" width="2" height="2" />

        <!-- Random QR pattern -->
        <rect x="14" y="10" width="1" height="1" />
        <rect x="16" y="12" width="1" height="1" />
        <rect x="18" y="10" width="1" height="1" />
        <rect x="12" y="14" width="1" height="1" />
        <rect x="20" y="18" width="1" height="1" />
        <rect x="14" y="20" width="1" height="1" />
        <rect x="18" y="22" width="1" height="1" />
    </g>
</svg>